<svg viewBox="0 0 24 24" xmlns="http://www.w3.org/2000/svg"><g data-name="43. Brightness"><path d="M18.553 16.576c.03-.044.066-.082.095-.126s.048-.088.075-.131a7.969 7.969 0 0 0 .409-.713c.057-.114.113-.228.166-.344a8.091 8.091 0 0 0 .329-.851c.026-.083.045-.167.068-.251a7.751 7.751 0 0 0 .182-.811c.017-.1.033-.2.047-.3A8.006 8.006 0 0 0 20 12c0-.264-.015-.524-.04-.782-.006-.064-.017-.126-.025-.189a8.028 8.028 0 0 0-.09-.589c-.011-.055-.025-.11-.037-.165-.045-.207-.1-.41-.158-.611l-.03-.095a7.921 7.921 0 0 0-4.465-4.918c-.038-.017-.077-.031-.115-.047q-.24-.1-.487-.179a9.416 9.416 0 0 0-.372-.115q-.1-.027-.2-.051a7.969 7.969 0 0 0-1.214-.22A7.475 7.475 0 0 0 12 4a8 8 0 1 0 .918 15.943c.091-.01.18-.028.27-.041.212-.032.422-.07.629-.118.1-.024.2-.05.3-.078q.291-.081.573-.182c.1-.036.2-.069.294-.108.2-.082.4-.174.592-.271.074-.037.15-.069.223-.108a8.017 8.017 0 0 0 .709-.436c.107-.073.208-.155.312-.233.128-.1.255-.2.377-.3s.212-.188.315-.286.224-.223.332-.339c.092-.1.186-.2.273-.3.156-.183.299-.373.436-.567Zm-4.884-10.31c.116.033.238.052.35.091l.086.031a5.973 5.973 0 0 1 .827.382c.073.041.143.087.214.131a5.76 5.76 0 0 1 .568.4c.112.088.219.182.324.278q.194.176.37.368c.109.118.213.239.312.366a5.9 5.9 0 0 1 .343.486c.062.1.124.194.18.295a5.982 5.982 0 0 1 .329.7c.032.083.062.166.091.25a5.941 5.941 0 0 1 .226.83c.01.052.016.106.024.158A6.044 6.044 0 0 1 18 12a6.151 6.151 0 0 1-.057.782q-.015.117-.036.234a5.836 5.836 0 0 1-.131.586c-.021.078-.041.156-.066.233a5.606 5.606 0 0 1-.232.6 5.823 5.823 0 0 1-.133.275c0 .011-.012.021-.017.031A5.962 5.962 0 0 1 13 9a5.888 5.888 0 0 1 .669-2.734ZM6 12a6 6 0 0 1 5.581-5.979 7.972 7.972 0 0 0 4.46 10.4c-.045.041-.088.083-.135.123-.1.083-.2.162-.3.239-.073.054-.144.112-.219.163a5.864 5.864 0 0 1-.539.332c-.047.026-.1.046-.145.07-.153.077-.308.15-.467.214-.069.028-.14.052-.211.077a5.598 5.598 0 0 1-.661.197 5.87 5.87 0 0 1-.476.09c-.067.01-.133.023-.2.03A5.846 5.846 0 0 1 12 18a6.006 6.006 0 0 1-6-6ZM12.02 2a1 1 0 0 0 0-2h-.01a1 1 0 0 0 .01 2ZM19.8 3.222h-.01a1.005 1.005 0 1 0 .01 0ZM23.02 11h-.01a1.005 1.005 0 1 0 .01 0ZM19.8 18.778h-.01a1.005 1.005 0 1 0 .01 0ZM12.02 22h-.01a1.005 1.005 0 1 0 .01 0ZM4.242 18.778h-.011a1.006 1.006 0 1 0 .011 0ZM1.02 11h-.01a1.005 1.005 0 1 0 .01 0ZM4.242 5.222a1 1 0 0 0 0-2h-.011a1 1 0 0 0 .011 2Z" fill="#fff242" class="fill-000000"></path></g></svg>