<svg viewBox="0 0 512 512" xmlns="http://www.w3.org/2000/svg"><path d="m390.5 144.1 12.83-12.83c6.25-6.25 6.25-16.37 0-22.62s-16.37-6.25-22.62 0L367.9 121.5l-35.24-35.17c-8.428-8.428-22.09-8.428-30.52 0l-22.58 22.58C257.2 100.7 233.2 96 208 96 93.13 96 0 189.1 0 304s93.13 208 208 208 208-93.1 208-208c0-25.18-4.703-49.21-12.9-71.55l22.58-22.58c8.428-8.428 8.428-22.09 0-30.52L390.5 144.1zM208 192c-61.7 0-112 50.3-112 112 0 8.8-7.16 16-16 16s-16-7.2-16-16c0-79.4 64.6-144 144-144 8.8 0 16 7.2 16 16s-7.2 16-16 16zM509.1 59.21l-39.73-16.57L452.8 2.918c-1.955-3.932-7.652-3.803-9.543 0l-16.57 39.72-39.73 16.57c-3.917 1.961-3.786 7.648 0 9.543l39.73 16.57 16.57 39.72c1.876 3.775 7.574 3.96 9.543 0l16.57-39.72 39.73-16.57c3.8-1.891 3.9-7.581 0-9.541z" fill="#ffffff" class="fill-000000"></path></svg>